<?xml version="1.0" encoding="UTF-8" standalone="no"?>
<!-- Created with Inkscape (http://www.inkscape.org/) -->

<svg
   width="197.18755mm"
   height="42.177395mm"
   viewBox="0 0 197.18755 42.177395"
   version="1.1"
   id="svg1"
   xml:space="preserve"
   inkscape:version="1.4.2 (f4327f4, 2025-05-13)"
   sodipodi:docname="dar-nexlysoft-logo.svg"
   xmlns:inkscape="http://www.inkscape.org/namespaces/inkscape"
   xmlns:sodipodi="http://sodipodi.sourceforge.net/DTD/sodipodi-0.dtd"
   xmlns="http://www.w3.org/2000/svg"
   xmlns:svg="http://www.w3.org/2000/svg"><sodipodi:namedview
     id="namedview1"
     pagecolor="#ffffff"
     bordercolor="#000000"
     borderopacity="0.25"
     inkscape:showpageshadow="2"
     inkscape:pageopacity="0.0"
     inkscape:pagecheckerboard="0"
     inkscape:deskcolor="#d1d1d1"
     inkscape:document-units="mm"
     inkscape:zoom="0.68862935"
     inkscape:cx="379.01376"
     inkscape:cy="137.22912"
     inkscape:window-width="1920"
     inkscape:window-height="991"
     inkscape:window-x="-9"
     inkscape:window-y="-9"
     inkscape:window-maximized="1"
     inkscape:current-layer="layer1" /><defs
     id="defs1" /><g
     inkscape:label="Katman 1"
     inkscape:groupmode="layer"
     id="layer1"
     transform="translate(-4.7990442,-112.28374)"><g
       id="g1"><path
         style="fill:#000000;stroke-width:1.12961"
         d="m 8.1981842,154.15904 c -1.42359,-0.29137 -2.19289,-0.88816 -2.91675,-2.26276 -0.4302,-0.81692 -0.48239,-2.59938 -0.48239,-16.47632 v -15.56027 l 0.84479,-1.90613 c 0.99222,-2.23877 2.72732,-4.03011 4.6414398,-4.7919 2.08126,-0.8283 5.42493,-0.57668 7.68879,0.57859 2.38258,1.21585 6.71754,5.64435 12.1885,12.45151 l 4.35348,5.41676 v 3.56245 3.56243 l -1.09792,-1.35161 c -0.60386,-0.74339 -3.27179,-3.82237 -5.92876,-6.84218 -10.3748,-11.79164 -11.63815,-12.9682 -13.9248,-12.9682 -0.8089,0 -1.49292,0.22314 -2.02762,0.66143 -1.5897198,1.30313 -1.6142798,1.54577 -1.6142798,15.94625 0,11.4453 0.0654,13.472 0.4755498,14.73106 0.47878,1.46978 1.58226,3.32741 2.71733,4.57445 0.33728,0.37057 0.61324,0.74811 0.61324,0.83904 0,0.25346 -4.0814698,0.13195 -5.5305998,-0.1646 z m 25.7323098,0.0582 c -3.44006,-1.16401 -6.53761,-4.05997 -13.066,-12.21568 l -4.50071,-5.62262 v -3.50508 c 0,-1.92779 0.0444,-3.44787 0.0986,-3.37796 0.71903,0.92699 9.66945,11.19229 12.46115,14.29178 4.38574,4.8693 5.66049,5.81965 7.80618,5.81965 1.7117,0 2.73571,-0.64141 3.57455,-2.23894 0.4519,-0.86065 0.51605,-2.28835 0.59501,-13.24244 0.0559,-7.7592 -0.0259,-12.92439 -0.2222,-14.03474 -0.40222,-2.27452 -1.46546,-4.5149 -3.01107,-6.34472 l -1.23555,-1.46275 3.05736,0.20879 c 3.54711,0.24225 4.83736,0.76974 5.70648,2.33298 0.57568,1.03544 0.59371,1.54974 0.59371,16.93325 v 15.86539 l -0.72496,1.52552 c -0.87626,1.84389 -2.6628,3.76609 -4.25227,4.57516 -1.27159,0.64725 -5.52342,0.95157 -6.8803,0.49242 z m 91.346826,-3.84718 c 0,-1.64158 0.0182,-1.67807 0.83465,-1.67807 1.44798,0 2.67111,-0.62525 3.16328,-1.61703 1.13891,-2.29514 1.15926,-2.1862 -1.96855,-10.54598 -1.60947,-4.30169 -3.05388,-8.13665 -3.20979,-8.52211 -0.15592,-0.38545 -0.28348,-0.76301 -0.28348,-0.83903 0,-0.0759 0.9098,-0.13818 2.02177,-0.13818 h 2.02174 l 0.87191,2.51712 c 0.47953,1.38439 1.44451,4.1949 2.14436,6.24557 0.69986,2.05066 1.36612,3.62958 1.48054,3.50869 0.11445,-0.1209 1.11601,-2.89708 2.22568,-6.16932 l 2.01761,-5.9495 1.99024,-0.0911 c 1.79931,-0.0824 1.97548,-0.0384 1.83628,0.45765 -0.46534,1.65846 -7.08166,20.21925 -7.54459,21.16489 -1.1037,2.25451 -3.05981,3.32948 -6.06457,3.33279 l -1.53708,9.5e-4 z m -37.914781,-5.44193 c -4.29153,-1.48435 -6.252775,-4.67855 -5.925735,-9.65095 0.18231,-2.77169 0.67311,-4.09806 2.14439,-5.79516 1.453477,-1.67654 3.066478,-2.49962 5.25777,-2.68292 5.033081,-0.42102 8.617143,2.88417 9.100103,8.39202 l 0.19395,2.212 h -6.373356 -6.373374 l 0.186365,0.99159 c 0.274689,1.46152 1.098177,2.44489 2.589274,3.09201 1.737577,0.75408 3.131849,0.48193 4.59677,-0.89724 1.016113,-0.95665 1.276431,-1.05064 2.910313,-1.05064 0.986908,0 1.794378,0.0741 1.794378,0.16473 0,0.0906 -0.25575,0.68708 -0.5683,1.32556 -0.687389,1.40411 -2.286027,2.91819 -3.761077,3.56212 -1.515756,0.66171 -4.353438,0.82735 -5.771471,0.33688 z m 6.382349,-11.36129 c -0.09129,-1.23591 -1.41504,-2.8089 -2.702072,-3.21072 -2.158214,-0.67385 -4.366877,0.33221 -5.179648,2.35933 -0.731156,1.82356 -0.792066,1.79579 3.768186,1.71819 l 4.172303,-0.071 z m 54.369142,11.49988 c -3.25633,-0.74359 -6.0165,-3.54423 -6.62675,-6.72393 l -0.18034,-0.93967 h 2.05428 c 1.90902,0 2.06647,0.0503 2.22608,0.71319 0.70853,2.94174 4.80651,4.44901 7.80791,2.87178 1.61671,-0.84958 2.22608,-2.01364 1.85829,-3.54979 -0.3558,-1.48605 -1.49905,-2.20344 -5.13231,-3.22053 -3.58948,-1.00483 -5.4577,-1.9306 -6.49938,-3.2207 -1.61584,-2.00115 -1.69588,-5.26131 -0.18993,-7.7359 2.53892,-4.172 9.9596,-4.71977 13.5303,-0.99876 1.06064,1.10529 1.96916,3.04944 1.97822,4.23326 0.005,0.82994 -0.0141,0.83903 -1.89662,0.83903 -1.54714,0 -1.90307,-0.0911 -1.90307,-0.48686 0,-0.94365 -1.02549,-2.27887 -2.20868,-2.87576 -3.01156,-1.51924 -6.57467,0.13124 -6.57467,3.04549 0,1.55706 0.80637,2.23681 3.80612,3.2085 7.19822,2.33165 9.08339,3.93123 9.06971,7.69582 -0.0157,4.33529 -3.02048,7.11063 -7.8986,7.29557 -1.20772,0.0458 -2.65696,-0.0221 -3.22056,-0.15074 z m 20.05532,-0.004 c -2.26547,-0.63694 -3.52994,-1.51894 -4.92324,-3.43411 -1.10584,-1.52007 -1.39209,-2.70527 -1.40356,-5.81133 -0.0149,-4.03742 1.27285,-6.49741 4.24228,-8.10436 1.29006,-0.69812 1.86617,-0.81288 4.13396,-0.82349 2.3124,-0.01 2.81917,0.0889 4.13926,0.81394 2.91909,1.6035 4.4977,4.51856 4.4977,8.30541 0,5.35296 -3.02321,8.82526 -7.98674,9.1732 -1.00174,0.0703 -2.21657,0.0166 -2.69966,-0.1192 z m 4.80861,-4.24121 c 1.4343,-1.11595 1.90138,-2.11101 2.0203,-4.30407 0.21449,-3.95587 -1.51447,-6.13273 -4.87089,-6.13273 -1.73933,0 -3.18878,0.9016 -3.93383,2.44692 -0.70894,1.47047 -0.69734,4.97539 0.0212,6.40584 0.78318,1.55913 2.70335,2.52659 4.58545,2.31038 0.80286,-0.0923 1.78285,-0.41909 2.17775,-0.72634 z M 59.109424,132.52149 v -12.50924 h 2.15927 2.15926 l 4.19848,7.09364 c 2.30916,3.90151 4.65103,7.88312 5.20415,8.84801 0.55312,0.96491 1.11765,1.75435 1.2545,1.75435 0.13685,0 0.24882,-3.9816 0.24882,-8.84801 v -8.84799 h 1.90306 1.90306 v 12.50924 12.50924 h -2.02849 -2.02849 l -2.18322,-3.58497 c -4.50151,-7.39173 -7.86443,-12.75244 -8.2712,-13.18481 -0.36541,-0.38843 -0.4203,0.67741 -0.4203,8.16149 v 8.60829 h -2.04945 -2.04945 z m 42.210146,7.97416 2.94133,-4.53507 -2.61345,-4.08409 c -1.43736,-2.24627 -2.711083,-4.25573 -2.830463,-4.46548 -0.16627,-0.29216 0.31782,-0.37914 2.069253,-0.37177 l 2.28631,0.01 1.60393,2.73631 c 0.88217,1.50499 1.67266,2.73585 1.75668,2.73527 0.0839,-5.7e-4 0.87135,-1.23623 1.74966,-2.74592 l 1.59694,-2.74489 h 2.29946 2.29941 l -2.91663,4.47525 -2.91664,4.47525 2.90426,4.5253 2.90429,4.52531 h -2.30889 -2.30886 l -1.67208,-2.74864 c -0.91963,-1.51175 -1.77216,-2.68418 -1.89447,-2.60541 -0.12232,0.0788 -0.91234,1.31567 -1.75562,2.74864 l -1.53319,2.60541 h -2.30128 -2.301273 z m 16.05274,-7.97416 v -12.50924 h 2.04946 2.04943 v 12.50924 12.50924 h -2.04943 -2.04946 z m 65.43595,5.26316 v -7.24632 l -1.3175,-0.15258 -1.3175,-0.15254 v -1.52551 -1.52552 l 1.3175,-0.15255 1.3175,-0.15256 0.14639,-2.03807 c 0.24486,-3.40901 1.76312,-4.82094 5.44914,-5.06745 l 2.16312,-0.14466 v 1.81372 1.81375 l -1.39072,0.0655 c -1.71008,0.0806 -2.41541,0.81735 -2.41541,2.52311 v 1.18662 h 1.75666 1.75667 v 1.67807 1.67806 h -1.75667 -1.75666 v 7.32249 7.32248 l -1.97626,1.5e-4 -1.97626,1.3e-4 z m 13.97031,6.63948 c -2.08265,-0.98503 -2.39139,-2.09466 -2.39913,-8.62277 l -0.005,-5.41561 h -1.31751 -1.31751 v -1.67805 -1.67807 h 1.31751 1.31751 v -2.59339 -2.59339 h 1.89121 1.89122 l 0.085,2.51711 0.085,2.51711 1.82986,0.0909 1.82986,0.0908 v 1.64894 1.64894 l -1.82986,0.0909 -1.82986,0.0908 v 4.98542 c 0,4.87144 0.0158,4.99874 0.69118,5.56815 0.41539,0.3502 1.14555,0.58271 1.82988,0.58271 h 1.13866 v 1.67808 1.67806 l -1.97625,-0.007 c -1.3205,-0.004 -2.3924,-0.20352 -3.23045,-0.5999 z"
         id="path1" /></g></g></svg>
