<svg xmlns="http://www.w3.org/2000/svg" xmlns:xlink="http://www.w3.org/1999/xlink" xmlns:inkscape="http://www.inkscape.org/namespaces/inkscape" version="1.1" width="722.6896" height="224.24475" viewBox="0 0 722.6896 224.24475">
<path transform="matrix(1,0,0,-1,0,224.24475)" d="M103.07428 19.615662H73.246189V105.53013H60.84505C47.84397 105.14036 38.049829 101.82732 31.462609 95.591 24.875397 89.35469 21.58179 76.88205 21.58179 58.17311 21.58179 39.464159 24.875397 25.529877 31.462609 16.370316 37.87648 7.405609 48.797388 2.923248 64.225337 2.923248H94.05343V-.000015H64.225337C21.408446-.000015 0 18.806382 0 56.419145 0 74.34854 3.813643 86.918628 11.440948 94.129367 19.068245 101.3401 29.46911 105.82246 42.643545 107.576419 28.949074 110.69457 18.981577 116.54112 12.741055 125.11606 6.500535 133.88587 3.380284 144.31221 3.380284 156.39507 3.380284 188.55107 24.788729 204.62908 67.60562 204.62908 75.766719 204.62908 84.58266 204.41094 94.05343 203.97467V128.06908H106.45457C130.89659 129.23838 143.11762 145.02407 143.11762 175.4261 143.11762 190.23735 139.47731 201.54067 132.1967 209.33606 124.91609 217.32634 114.081859 221.32149 99.69399 221.32149 91.24528 221.32149 82.429347 220.83983 73.246189 219.87651V223.59035C82.71696 224.02661 91.5329 224.24475 99.69399 224.24475 142.51088 224.24475 163.91933 208.16675 163.91933 176.01074 163.91933 163.92789 160.79909 153.50156 154.55857 144.73174 148.31804 136.1568 138.35054 130.31026 124.65607 127.1921 137.8305 125.43814 148.23137 120.95579 155.85868 113.74505 163.48598 106.53431 167.29962 93.96423 167.29962 76.03482 167.29962 38.42206 145.89118 19.615662 103.07428 19.615662ZM73.246189 125.145809V201.63559C71.34815 201.6824 69.467967 201.7058 67.60562 201.7058 53.217756 201.7058 42.383523 197.71067 35.102918 189.72039 27.822312 181.92499 24.182005 170.62166 24.182005 155.81043 24.182005 125.40838 36.403024 109.6227 60.84505 108.45339H94.05343V22.53894H103.07428C118.50223 22.53894 129.42313 27.021286 135.837 35.985994 142.42423 45.145586 145.71782 59.07985 145.71782 77.78879 145.71782 96.497737 142.42423 108.97037 135.837 115.20668 129.24979 121.443 119.45564 124.75604 106.45457 125.145809H73.246189Z" fill="#004c36" fill-rule="evenodd"/>
<path transform="matrix(1,0,0,-1,202.68958,180.15125)" d="M35.19043 135.09278C63.45745 135.09278 77.59082 124.4779 77.59082 103.24902 77.59079 95.27222 75.53096 88.389247 71.41113 82.59961 67.291248 76.93857 60.710794 73.07809 51.66992 71.01953 60.367349 69.86161 67.23413 66.90287 72.26953 62.14258 77.3049 57.382219 79.82319 49.083574 79.82324 37.24707 79.82324 12.415718 65.688899 0 37.421876 0H0V133.54883C13.275063 134.5781 25.005219 135.09276 35.19043 135.09278ZM176.29688 0H161.70508L125.828128 114.25 81.88281 0H79.822269L131.14942 135.09278 133.03809 136.05762 176.29688 0ZM207.32422 48.05371 237.19336 115.793949C238.45209 119.010288 239.08106 122.35546 239.08106 125.8291 239.08104 129.30286 238.22248 132.0047 236.50586 133.93457L237.87989 135.09278C240.05426 132.64824 241.1416 129.49555 241.1416 125.63574 241.14157 122.41945 240.51166 119.138889 239.25293 115.793949L208.52539 45.73828V0H194.27735V41.492189L159.94532 135.09278H174.53614L207.32422 48.05371ZM284.6084 135.09278C312.87544 135.09278 327.0088 124.4779 327.0088 103.24902 327.00877 95.272228 324.9489 88.389247 320.8291 82.59961 316.7092 76.93857 310.12876 73.07809 301.0879 71.01953 309.78535 69.86161 316.6521 66.90288 321.6875 62.14258 326.72288 57.382219 329.24116 49.083574 329.2412 37.24707 329.2412 12.415718 315.10688 0 286.83985 0H249.41797V133.54883C262.69303 134.5781 274.4232 135.09276 284.6084 135.09278ZM425.71485 0H411.12306L375.2461 114.25 331.30079 0H329.24024L380.56739 135.09278 382.45606 136.05762 425.71485 0ZM469.18849 135.09278C497.4554 135.09275 511.58888 124.47787 511.58888 103.24902 511.58885 94.242908 509.64295 86.20125 505.75196 79.125 501.8609 72.04902 495.16636 67.35293 485.66798 65.03711L520 0H504.03614L470.38966 63.878908H448.24513V0H433.99806V133.54883C447.27308 134.57808 459.0033 135.09278 469.18849 135.09278ZM14.248047 1.929688H37.421876C47.606988 1.929688 54.817396 4.888489 59.051759 10.806641 63.40049 16.8536 65.57516 26.053116 65.575199 38.404298 65.575199 50.755647 63.400529 58.990304 59.051759 63.10742 54.70304 67.22445 48.23719 69.41158 39.654298 69.668949H14.248047V1.929688ZM263.66603 1.929688H286.83985C297.02497 1.929688 304.23536 4.888474 308.46974 10.806641 312.81846 16.8536 314.99314 26.053116 314.99317 38.404298 314.99317 50.755647 312.8185 58.990304 308.46974 63.10742 304.121 67.22445 297.65516 69.411579 289.07228 69.668949H263.66603V1.929688ZM469.18849 133.16309C462.55088 133.16309 455.56938 132.71215 448.24513 131.81153V65.80957H473.65138C489.7876 66.581539 497.85548 78.93254 497.85548 102.86328 497.85548 112.641269 495.45289 120.10362 490.64649 125.25 485.83998 130.52503 478.68705 133.16307 469.18849 133.16309ZM35.19043 133.16309C28.552939 133.16307 21.572157 132.71213 14.248047 131.81153V71.59863H39.654298C55.790307 72.37072 63.8584 82.79248 63.8584 102.86328 63.858388 112.64139 61.454965 120.103618 56.648439 125.25 51.8419 130.52504 44.689058 133.16309 35.19043 133.16309ZM284.6084 133.16309C277.97093 133.16307 270.9901 132.71213 263.66603 131.81153V71.59863H289.07228C305.20826 72.37073 313.27638 82.792499 313.27638 102.86328 313.27638 112.64139 310.87294 120.103618 306.0664 125.25 301.25987 130.52506 294.10704 133.16309 284.6084 133.16309Z" fill="#004c36"/>
</svg>
